#N canvas 30 25 874 610 12;
#X obj 21 539 osc-send-d 10.0.0.120 8888 led;
#X obj 21 514 r osc-led;
#X floatatom 405 262 5 0 0 0 - - -;
#X obj 448 136 vsl 20 60 0 255 0 0 empty empty empty 0 -9 0 10 -204800
-1 -1 0 1;
#X floatatom 480 278 5 0 0 0 - - -;
#X obj 437 388 list trim;
#X msg 405 412 3 0;
#X obj 437 364 list prepend set;
#X obj 448 202 t b f;
#X obj 405 315 pack f f;
#X obj 405 339 t b a;
#X obj 405 436 s osc-led;
#X msg 405 181 3;
#X obj 383 134 loadbang;
#X obj 669 231 line;
#X floatatom 669 255 5 0 0 0 - - -;
#X obj 480 224 *;
#X obj 492 109 t b f;
#X obj 480 248 int;
#X floatatom 669 155 5 0 0 0 - - -;
#X obj 668 71 tgl 30 0 empty empty empty 17 7 0 10 -4034 -1 -1 0 1
;
#X obj 669 280 vsl 20 60 0 1 0 0 empty empty empty 0 -9 0 10 -262144
-1 -1 0 1;
#X floatatom 669 348 5 0 0 0 - - -;
#X floatatom 235 262 5 0 0 0 - - -;
#X obj 278 136 vsl 20 60 0 255 0 0 empty empty empty 0 -9 0 10 -204786
-1 -1 0 1;
#X floatatom 310 278 5 0 0 0 - - -;
#X obj 267 388 list trim;
#X msg 235 412 2 0;
#X obj 267 364 list prepend set;
#X obj 278 202 t b f;
#X obj 235 315 pack f f;
#X obj 235 339 t b a;
#X obj 235 436 s osc-led;
#X obj 213 134 loadbang;
#X obj 310 224 *;
#X obj 322 109 t b f;
#X obj 310 248 int;
#X floatatom 65 262 5 0 0 0 - - -;
#X obj 108 136 vsl 20 60 0 255 0 0 empty empty empty 0 -9 0 10 -261234
-1 -1 0 1;
#X floatatom 140 278 5 0 0 0 - - -;
#X obj 97 388 list trim;
#X msg 65 412 1 0;
#X obj 97 364 list prepend set;
#X obj 108 202 t b f;
#X obj 65 315 pack f f;
#X obj 65 339 t b a;
#X obj 65 436 s osc-led;
#X obj 43 134 loadbang;
#X obj 140 224 *;
#X obj 152 109 t b f;
#X obj 140 248 int;
#X msg 65 181 1;
#X msg 235 181 2;
#X msg 669 206 1 4000;
#X msg 749 206 0 4000;
#X obj 492 85 r led-f;
#X obj 322 85 r led-f;
#X obj 152 85 r led-f;
#X obj 669 371 s led-f;
#X msg 251 512 3;
#X obj 251 484 loadbang;
#X obj 669 107 metro 4000;
#X obj 251 539 osc-send-d 10.0.0.120 8888 send_ch;
#X obj 669 134 tgl 15 0 empty empty empty 17 7 0 10 -262144 -1 -1 0
1;
#X obj 669 178 sel 1 0;
#X connect 1 0 0 0;
#X connect 2 0 9 0;
#X connect 3 0 8 0;
#X connect 4 0 9 1;
#X connect 5 0 6 0;
#X connect 6 0 11 0;
#X connect 7 0 5 0;
#X connect 8 0 2 0;
#X connect 8 1 16 0;
#X connect 9 0 10 0;
#X connect 10 0 6 0;
#X connect 10 1 7 0;
#X connect 12 0 2 0;
#X connect 13 0 12 0;
#X connect 14 0 15 0;
#X connect 15 0 21 0;
#X connect 16 0 18 0;
#X connect 17 0 3 0;
#X connect 17 1 16 1;
#X connect 18 0 4 0;
#X connect 19 0 64 0;
#X connect 20 0 61 0;
#X connect 21 0 22 0;
#X connect 22 0 58 0;
#X connect 23 0 30 0;
#X connect 24 0 29 0;
#X connect 25 0 30 1;
#X connect 26 0 27 0;
#X connect 27 0 32 0;
#X connect 28 0 26 0;
#X connect 29 0 23 0;
#X connect 29 1 34 0;
#X connect 30 0 31 0;
#X connect 31 0 27 0;
#X connect 31 1 28 0;
#X connect 33 0 52 0;
#X connect 34 0 36 0;
#X connect 35 0 24 0;
#X connect 35 1 34 1;
#X connect 36 0 25 0;
#X connect 37 0 44 0;
#X connect 38 0 43 0;
#X connect 39 0 44 1;
#X connect 40 0 41 0;
#X connect 41 0 46 0;
#X connect 42 0 40 0;
#X connect 43 0 37 0;
#X connect 43 1 48 0;
#X connect 44 0 45 0;
#X connect 45 0 41 0;
#X connect 45 1 42 0;
#X connect 47 0 51 0;
#X connect 48 0 50 0;
#X connect 49 0 38 0;
#X connect 49 1 48 1;
#X connect 50 0 39 0;
#X connect 51 0 37 0;
#X connect 52 0 23 0;
#X connect 53 0 14 0;
#X connect 54 0 14 0;
#X connect 55 0 17 0;
#X connect 56 0 35 0;
#X connect 57 0 49 0;
#X connect 59 0 62 0;
#X connect 60 0 59 0;
#X connect 61 0 63 0;
#X connect 63 0 19 0;
#X connect 64 0 53 0;
#X connect 64 1 54 0;
